<?xml version="1.0" encoding="UTF-8" standalone="no"?>
<!-- Created with Inkscape (http://www.inkscape.org/) -->

<svg
   width="427.03751mm"
   height="214.4944mm"
   viewBox="0 0 427.03751 214.4944"
   version="1.1"
   id="svg5"
   xml:space="preserve"
   xmlns="http://www.w3.org/2000/svg"
   xmlns:svg="http://www.w3.org/2000/svg"><defs
     id="defs2" /><g
     id="layer1"
     transform="translate(214.62822,-49.19057)"><path
       style="fill:#9f0b10;fill-opacity:1;stroke-width:0.264583"
       d="m -214.62822,241.45997 v -22.22499 h 4.36562 4.36563 v -1.30792 c 0,-2.37067 1.26283,-2.6041 7.88088,-1.45672 4.38635,0.76046 5.3374,0.7301 9.97049,-0.31833 2.16746,-0.49047 3.47238,-0.63553 5.15328,-0.57285 l 2.25088,0.0839 5.03317,-4.74502 c 6.28356,-5.92383 18.32599,-17.93928 19.31028,-19.26702 l 0.73635,-0.9933 -1.32826,-2.31399 c -1.56432,-2.72524 -2.17582,-4.41267 -2.17582,-6.00414 0,-3.00235 -1.39075,-7.86438 -3.56109,-12.44944 -1.03297,-2.18226 -1.8624,-3.46998 -3.31521,-5.14696 -2.85073,-3.29061 -6.93513,-8.8486 -11.15857,-15.18438 -3.22099,-4.83198 -3.92191,-5.72337 -5.12323,-6.51544 -2.26587,-1.49395 -3.18981,-3.19776 -6.45457,-11.90271 -1.68419,-4.49059 -2.23497,-7.17007 -3.07439,-14.95647 -0.35363,-3.28032 -0.37445,-4.42154 -0.12067,-6.61458 0.39728,-3.43304 1.77721,-8.79509 3.27278,-12.717202 l 1.1863,-3.11105 -1.96133,1.94824 -1.96133,1.94824 0.95874,-2.63531 c 2.34261,-6.4392 5.05622,-16.13508 6.96852,-24.89891 0.96111,-4.40461 1.62596,-6.4952 2.8486,-8.95722 2.94104,-5.9224 7.09379,-9.22378 13.16107,-10.46287 1.45521,-0.29719 3.41974,-0.66956 4.36563,-0.82749 2.0375,-0.34019 7.04789,-0.11859 9.5059,0.42042 1.53549,0.33671 1.98524,0.32388 4.63021,-0.13208 4.8603,-0.83785 9.86616,-1.16696 12.36813,-0.81313 1.19022,0.16832 2.46293,0.50187 2.82823,0.74123 l 0.6642,0.4352 -0.77698,0.63392 c -1.6701,1.36265 -10.24111,6.99144 -11.97697,7.8656 -1.19525,0.60192 -2.21079,1.36401 -2.91413,2.18685 -1.48341,1.73545 -3.76327,5.86611 -6.62519,12.00357 -2.73409,5.86332 -2.86751,6.54371 -1.72801,8.8124 1.10059,2.19121 2.08599,3.27089 11.62631,12.7385 8.81269,8.745532 11.85716,12.090752 15.08969,16.580352 0.86,1.19444 2.81942,3.42937 4.35427,4.96651 3.81853,3.82424 5.1728,5.71618 9.57622,13.37814 2.09082,3.63802 5.45612,9.44147 7.47845,12.89656 l 3.67697,6.28197 2.62138,2.01886 c 1.44176,1.11037 6.926724,5.49276 12.188789,9.73863 9.880563,7.97246 18.050389,14.31492 21.736495,16.87464 1.164167,0.80842 9.37948,5.67026 18.256251,10.80407 29.993374,17.34644 34.828524,20.27091 35.916664,21.72365 0.71712,0.95741 1.52188,2.44208 1.52188,2.80767 0,0.124 -0.59531,0.43953 -1.32292,0.70117 l -1.32291,0.47571 v 1.39402 1.39402 l -0.99219,0.164 c -2.83982,0.46939 -6.6904,-0.0372 -9.32657,-1.22705 -0.80036,-0.36125 -2.88004,-1.68982 -4.6215,-2.95239 -3.98307,-2.88776 -7.33382,-4.57033 -12.225,-6.13876 -5.19638,-1.6663 -7.785799,-3.41516 -15.432663,-10.42304 -5.158682,-4.72761 -7.845631,-6.91365 -9.440833,-7.68087 -2.860715,-1.37586 -11.810726,-3.7318 -23.055409,-6.06894 -4.13066,-0.85854 -4.81579,-0.94276 -4.63429,-0.56966 0.11715,0.2408 0.22448,1.27126 0.23852,2.2899 0.0242,1.75698 0.19883,2.25971 3.400386,9.78959 3.748956,8.81734 3.822227,9.00536 3.145563,8.0722 -4.787469,-6.60226 -8.883549,-11.70508 -11.550883,-14.38992 -0.89486,-0.90073 -4.06793,-3.54944 -7.05126,-5.88602 -4.54336,-3.55842 -5.64729,-4.30185 -6.79767,-4.57782 -1.66565,-0.39958 -2.46246,-0.20284 -2.46246,0.60801 0,0.67878 0.84302,2.00716 3.28734,5.17999 2.25025,2.92092 3.32724,4.95797 3.32724,6.29323 0,1.26418 -0.52504,1.81349 -2.22132,2.324 -1.59636,0.48043 -3.5036,0.16949 -6.25396,-1.01961 -1.81068,-0.78283 -2.10979,-0.8468 -2.21775,-0.47426 -0.29416,1.01512 -6.81205,21.79725 -6.94456,22.14258 -0.11804,0.30759 0.18975,0.38074 1.60199,0.38074 1.55028,0 1.7481,0.0578 1.7481,0.51039 0,0.38823 -0.33341,0.60732 -1.39292,0.91533 -0.8685,0.25248 -1.70957,0.7327 -2.23399,1.27554 -0.80733,0.83569 -1.9114,2.89203 -1.92353,3.5826 -0.005,0.26424 34.378114,0.33073 171.047329,0.33073 H 212.4093 v 22.22499 22.225 H -1.1094609 -214.62822 Z m 17.72708,-22.37006 c -0.21828,-0.046 -1.84469,-0.27867 -3.61424,-0.51699 -3.15309,-0.42466 -3.23767,-0.4226 -4.23334,0.10268 l -1.01596,0.53599 4.63021,-0.019 c 2.54661,-0.0104 4.45161,-0.0567 4.23333,-0.10268 z m 13.09688,-0.25922 c -1.31722,-0.43412 -2.27578,-0.43379 -3.96875,0.001 -1.29144,0.33196 -1.24736,0.34014 1.85208,0.34374 2.984,0.003 3.11133,-0.0173 2.11667,-0.34511 z m 31.34113,-0.11511 c -1.49752,-0.79186 -4.05825,-1.14447 -6.85272,-0.94362 -2.76933,0.19904 -9.2709,1.10626 -9.48868,1.32404 -0.0764,0.0764 3.78017,0.13371 8.57023,0.12728 8.67563,-0.0116 8.70559,-0.0136 7.77117,-0.5077 z m 15.17613,-0.0759 c 0.19782,-0.32742 0.74429,-1.25015 1.21439,-2.05052 0.47009,-0.80036 1.67826,-2.40771 2.68482,-3.57187 4.10833,-4.75163 8.71166,-16.43094 8.7664,-22.2416 0.0294,-3.11733 -0.4796,-4.09574 -3.25721,-6.26154 -3.75179,-2.92541 -9.56384,-6.57933 -19.41316,-12.2047 -1.16417,-0.66491 -2.15108,-1.11012 -2.19314,-0.98935 -0.13846,0.39755 0.70094,5.14557 1.26742,7.16906 1.4955,5.34197 0.69391,10.16731 -2.10972,12.7 -1.97136,1.78086 -23.85153,25.19172 -23.69246,25.34995 0.38709,0.38503 7.49963,0.0994 11.11748,-0.44651 7.34373,-1.10806 10.45187,-0.5448 11.90625,2.15769 l 0.52917,0.98328 6.41005,7.9e-4 c 6.36485,7.9e-4 6.41258,-0.003 6.76971,-0.5946 z"
       id="path193" /></g></svg>
